# xmcd
#
# Track frame offsets:
#       150
#       12910
#       29252
#       43681
#       60376
#       77364
#       94099
#       109019
#       119084
#       127537
#       142738
#       155274
#       164598
#       175422
#       194419
#       207778
#       218383
#       237493
#
# Disc length: 3301 seconds
#
# Revision: 1
# Processed by: cddbd v1.4PL0 Copyright (c) Steve Scherf et al.
# Submitted via: MusiCat 1.1
#
DISCID=e40ce312
DTITLE=The Rolling Stones - Stones
DYEAR=1900
DGENRE=
TTITLE0=(that Place) Down The Road Apiece
TTITLE1=Let's Spend The Night Together
TTITLE2=Walking The Dog
TTITLE3=Tell me
TTITLE4=Heart Of Stone
TTITLE5=Satisfaction
TTITLE6=Ruby Tuesday
TTITLE7=Fortune Teller
TTITLE8=Not fade Away
TTITLE9=Out Of Time
TTITLE10=Under The Boardwalk
TTITLE11=Poison Ivy
TTITLE12=The Singer Not The Song
TTITLE13=Gimme Shelter
TTITLE14=Little Red Rooster
TTITLE15=Route 66
TTITLE16=Little queenie
TTITLE17=I Just wanna Make Love To You
EXTD=\n\n
EXTT0=
EXTT1=
EXTT2=
EXTT3=
EXTT4=
EXTT5=
EXTT6=
EXTT7=
EXTT8=
EXTT9=
EXTT10=
EXTT11=
EXTT12=
EXTT13=
EXTT14=
EXTT15=
EXTT16=
EXTT17=
PLAYORDER=
